<svg width="25" height="24" viewBox="0 0 25 24" fill="none" xmlns="http://www.w3.org/2000/svg">
<path d="M2 21.75V9H23V21.75C22.9688 22.375 22.75 22.9062 22.3438 23.3438C21.9062 23.75 21.375 23.9688 20.75 24H4.25C3.625 23.9688 3.09375 23.75 2.65625 23.3438C2.25 22.9062 2.03125 22.375 2 21.75ZM17 12.75V14.25C17.0312 14.7188 17.2812 14.9688 17.75 15H19.25C19.7188 14.9688 19.9688 14.7188 20 14.25V12.75C19.9688 12.2812 19.7188 12.0312 19.25 12H17.75C17.2812 12.0312 17.0312 12.2812 17 12.75ZM17 18.75V20.25C17.0312 20.7188 17.2812 20.9688 17.75 21H19.25C19.7188 20.9688 19.9688 20.7188 20 20.25V18.75C19.9688 18.2812 19.7188 18.0312 19.25 18H17.75C17.2812 18.0312 17.0312 18.2812 17 18.75ZM11 12.75V14.25C11.0312 14.7188 11.2812 14.9688 11.75 15H13.25C13.7188 14.9688 13.9688 14.7188 14 14.25V12.75C13.9688 12.2812 13.7188 12.0312 13.25 12H11.75C11.2812 12.0312 11.0312 12.2812 11 12.75ZM11 18.75V20.25C11.0312 20.7188 11.2812 20.9688 11.75 21H13.25C13.7188 20.9688 13.9688 20.7188 14 20.25V18.75C13.9688 18.2812 13.7188 18.0312 13.25 18H11.75C11.2812 18.0312 11.0312 18.2812 11 18.75ZM5 12.75V14.25C5.03125 14.7188 5.28125 14.9688 5.75 15H7.25C7.71875 14.9688 7.96875 14.7188 8 14.25V12.75C7.96875 12.2812 7.71875 12.0312 7.25 12H5.75C5.28125 12.0312 5.03125 12.2812 5 12.75ZM5 18.75V20.25C5.03125 20.7188 5.28125 20.9688 5.75 21H7.25C7.71875 20.9688 7.96875 20.7188 8 20.25V18.75C7.96875 18.2812 7.71875 18.0312 7.25 18H5.75C5.28125 18.0312 5.03125 18.2812 5 18.75ZM20.75 3C21.375 3.03125 21.9062 3.25 22.3438 3.65625C22.75 4.09375 22.9688 4.625 23 5.25V7.5H2V5.25C2.03125 4.625 2.25 4.09375 2.65625 3.65625C3.09375 3.25 3.625 3.03125 4.25 3H6.5V1.45312C6.5 1.04687 6.64062 0.703125 6.92188 0.421875C7.20312 0.140625 7.5625 0 8 0C8.4375 0 8.79688 0.140625 9.07812 0.421875C9.35938 0.703125 9.5 1.04687 9.5 1.45312V3H15.5V1.45312C15.5 1.04687 15.6406 0.703125 15.9219 0.421875C16.2031 0.140625 16.5625 0 17 0C17.4375 0 17.7969 0.140625 18.0781 0.421875C18.3594 0.703125 18.5 1.04687 18.5 1.45312V3H20.75Z" fill="#06436B"/>
</svg>
