<svg width="27" height="24" viewBox="0 0 27 24" fill="none" xmlns="http://www.w3.org/2000/svg">
<path d="M24.75 1.5C25.375 1.53125 25.9062 1.75 26.3438 2.15625C26.75 2.59375 26.9688 3.125 27 3.75V4.5H0V3.75C0.03125 3.125 0.25 2.59375 0.65625 2.15625C1.09375 1.75 1.625 1.53125 2.25 1.5H24.75ZM0 20.25V6H27V20.25C26.9688 20.875 26.75 21.4062 26.3438 21.8438C25.9062 22.25 25.375 22.4688 24.75 22.5H2.25C1.625 22.4688 1.09375 22.25 0.65625 21.8438C0.25 21.4062 0.03125 20.875 0 20.25ZM17.25 9C16.7812 9.03125 16.5312 9.28125 16.5 9.75C16.5312 10.2188 16.7812 10.4688 17.25 10.5H23.25C23.7188 10.4688 23.9688 10.2188 24 9.75C23.9688 9.28125 23.7188 9.03125 23.25 9H17.25ZM17.25 12C16.7812 12.0312 16.5312 12.2812 16.5 12.75C16.5312 13.2188 16.7812 13.4688 17.25 13.5H23.25C23.7188 13.4688 23.9688 13.2188 24 12.75C23.9688 12.2812 23.7188 12.0312 23.25 12H17.25ZM17.25 15C16.7812 15.0312 16.5312 15.2812 16.5 15.75C16.5312 16.2188 16.7812 16.4688 17.25 16.5H23.25C23.7188 16.4688 23.9688 16.2188 24 15.75C23.9688 15.2812 23.7188 15.0312 23.25 15H17.25ZM8.25 9C7.40625 9.03125 6.70312 9.32812 6.14062 9.89062C5.57812 10.4531 5.28125 11.1562 5.25 12C5.28125 12.8438 5.57812 13.5469 6.14062 14.1094C6.70312 14.6719 7.40625 14.9688 8.25 15C9.09375 14.9688 9.79688 14.6719 10.3594 14.1094C10.9219 13.5469 11.2188 12.8438 11.25 12C11.2188 11.1562 10.9219 10.4531 10.3594 9.89062C9.79688 9.32812 9.09375 9.03125 8.25 9ZM5.25 16.5C4.625 16.5312 4.09375 16.75 3.65625 17.1562C3.25 17.5938 3.03125 18.125 3 18.75C3.03125 19.2188 3.28125 19.4688 3.75 19.5H12.75C13.2188 19.4688 13.4688 19.2188 13.5 18.75C13.4688 18.125 13.25 17.5938 12.8438 17.1562C12.4062 16.75 11.875 16.5312 11.25 16.5H5.25Z" fill="#06436B"/>
</svg>
