<svg width="24" height="24" viewBox="0 0 24 24" fill="none" xmlns="http://www.w3.org/2000/svg">
<path d="M9.375 1.5C10.0625 1.5625 10.4375 1.9375 10.5 2.625V21.375C10.4375 22.0625 10.0625 22.4375 9.375 22.5H8.57812C7.92188 22.4375 7.5625 22.0469 7.5 21.3281V2.57812C7.5625 1.92188 7.9375 1.5625 8.625 1.5H9.375ZM5.20312 1.5C5.67188 1.5625 5.92188 1.79687 5.95312 2.20312V21.7969C5.89062 22.2031 5.64062 22.4375 5.20312 22.5C4.76562 22.4688 4.53125 22.2031 4.5 21.7031V2.20312C4.53125 1.79687 4.76562 1.5625 5.20312 1.5ZM1.875 1.5C2.5625 1.5625 2.9375 1.9375 3 2.625V21.375C2.9375 22.0625 2.5625 22.4375 1.875 22.5H1.07812C0.421875 22.4375 0.0625 22.0469 0 21.3281V2.57812C0.0625 1.92188 0.4375 1.5625 1.125 1.5H1.875ZM22.875 1.5C23.5625 1.5625 23.9375 1.9375 24 2.625V21.375C23.9375 22.0625 23.5625 22.4375 22.875 22.5H22.125C21.4375 22.4375 21.0625 22.0625 21 21.375V2.625C21.0625 1.9375 21.4375 1.5625 22.125 1.5H22.875ZM18.75 1.5C19.2188 1.53125 19.4688 1.78125 19.5 2.25V21.75C19.4688 22.2188 19.2188 22.4688 18.75 22.5C18.2812 22.4688 18.0312 22.2188 18 21.75V2.25C18.0312 1.78125 18.2812 1.53125 18.75 1.5ZM13.875 1.5C14.5625 1.5625 14.9375 1.9375 15 2.625V21.375C14.9375 22.0625 14.5625 22.4375 13.875 22.5H13.125C12.4375 22.4375 12.0625 22.0625 12 21.375V2.625C12.0625 1.9375 12.4375 1.5625 13.125 1.5H13.875Z" fill="#06436B"/>
</svg>
