<svg width="21" height="22" viewBox="0 0 21 22" fill="none" xmlns="http://www.w3.org/2000/svg">
<path d="M14.9531 9.875C15.6094 9.9375 15.9375 10.3125 15.9375 11C15.9062 11.6875 15.5469 12.0625 14.8594 12.125H11.4844V15.5C11.4531 16.1875 11.0938 16.5625 10.4062 16.625C9.71875 16.5625 9.34375 16.1875 9.28125 15.5V12.125H5.95312C5.64062 12.125 5.375 12.0156 5.15625 11.7969C4.9375 11.5781 4.82812 11.3125 4.82812 11C4.82812 10.6875 4.9375 10.4219 5.15625 10.2031C5.375 9.98438 5.64062 9.875 5.95312 9.875H9.32812V6.5C9.32812 6.1875 9.45312 5.92188 9.70312 5.70312C9.92188 5.48437 10.1875 5.375 10.5 5.375C11.1562 5.4375 11.5156 5.8125 11.5781 6.5V9.875H14.9531ZM18 0.5C18.8438 0.53125 19.5469 0.828125 20.1094 1.39062C20.6719 1.95312 20.9688 2.65625 21 3.5V18.5C20.9688 19.3438 20.6719 20.0469 20.1094 20.6094C19.5469 21.1719 18.8438 21.4688 18 21.5H3C2.15625 21.4688 1.45312 21.1719 0.890625 20.6094C0.328125 20.0469 0.03125 19.3438 0 18.5V3.5C0.03125 2.65625 0.328125 1.95312 0.890625 1.39062C1.45312 0.828125 2.15625 0.53125 3 0.5H18ZM18.75 18.5V3.5C18.7188 3.03125 18.4688 2.78125 18 2.75H3C2.53125 2.78125 2.28125 3.03125 2.25 3.5V18.5C2.28125 18.9688 2.53125 19.2188 3 19.25H18C18.4688 19.2188 18.7188 18.9688 18.75 18.5Z" fill="white"/>
</svg>
